<svg xmlns="http://www.w3.org/2000/svg" xmlns:xlink="http://www.w3.org/1999/xlink" width="357" height="240"><defs><path id="a" d="M.152.102h210.719V239.1H.152z"/><path id="c" d="M.127.008h71.147V35.1H.127z"/></defs><g fill="none" fill-rule="evenodd"><path fill="#F3FFD3" d="M170.36 94.98a38.619 38.619 0 00-6.907-3.743c-6.153-2.574-9.073-8.27-7.178-13.668a16.819 16.819 0 00.842-7.703c-1.373-11-14.293-19.363-28.253-18.273-14.867 1.161-25.841 11.749-24.406 23.4l.019.145c.177 1.338-1.045 2.564-2.742 2.727l-.033.003c-11.525 1.117-19.959 9.4-18.838 18.5.14 1.143.491 2.302.954 3.42l47.831 45.7 38.712-50.509z"/><path fill="#6DBEA7" d="M155.514 232.588c.972-4.745-.332-9.423-3.26-13.275-2.238-2.943-2.463-6.59-.454-9.541 1.686-2.478 2.894-5.239 3.505-8.219 1.658-8.088-1.425-16.04-7.593-21.917-3.228-3.077-4.338-7.258-2.777-11.012.371-.893.66-1.824.858-2.788 1.459-7.12-2.44-14.089-9.295-18.088-3.973-2.317-5.538-6.541-3.565-10.091.926-1.667 1.689-3.454 2.053-5.233 2.314-11.289-7.02-22.246-20.848-24.474l-.041-.006c-2.035-.327-3.386-1.947-3.03-3.606l.037-.18c2.962-14.45-9.204-28.471-27.071-30.997-16.778-2.372-33.292 7.14-36.11 20.782a21.608 21.608 0 00.21 9.684c1.725 6.882-2.406 13.785-10.122 16.555-13.298 4.776-23.416 14.734-26.02 27.443-1.654 8.07-.032 16.044 4.073 22.998 3.612 6.119 1.92 13.371-4.088 17.798C6.116 192.74 1.941 198.666.52 205.6c-2.518 12.285 4.312 24.305 16.256 31.09 1.167.663 2.029 1.578 2.524 2.607h133.11c1.519-1.98 2.597-4.24 3.104-6.71"/><path fill="#38A08D" d="M356.574 226.998c0-4.81-5.353-8.955-8.654-13.064-3.587-4.465-3.836-10.985-.82-15.925 2.776-4.546 4.393-10.002 4.393-15.87 0-10.292-4.976-19.319-12.452-24.387-4.126-2.798-6.299-8.1-5.287-13.275.283-1.447.432-2.947.432-4.485 0-10.245-6.597-18.814-15.421-20.948-2.338-.566-3.908-2.932-3.685-5.527.1-1.156.134-2.263.026-3.167-.708-5.933-3.781-9.17-8.211-11.814-2.28-1.36-3.398-4.222-2.75-6.962.32-1.35.499-2.766.535-4.227.267-10.936-5.147-15.442-8.908-17.47-1.837-.99-3.176-2.816-3.714-4.97-1.46-5.846-6.54-10.07-12.459-9.642-5.79.417-10.542 5.374-11.164 11.652l-.014.148c-.192 2.153-1.89 3.73-3.875 3.627a14.09 14.09 0 00-1.274-.006c.112.573.207 1.165.281 1.78.14 1.174.094 2.611-.035 4.113-.288 3.369 1.75 6.442 4.785 7.176 11.458 2.771 20.025 13.897 20.025 27.201a30.3 30.3 0 01-.56 5.823c-1.315 6.72 1.506 13.605 6.864 17.238 9.708 6.581 16.169 18.302 16.169 31.666 0 7.62-2.1 14.704-5.705 20.607-3.916 6.414-3.593 14.88 1.065 20.678 4.286 5.336 7.91 11.264 7.91 17.51v14.816h39.94s2.563-9.328 2.563-12.296"/><g transform="translate(103.2 .198)"><mask id="b" fill="#fff"><use xlink:href="#a"/></mask><path fill="#51CCA1" d="M202.961 206.17c-4.658-5.797-4.981-14.263-1.065-20.678 3.605-5.903 5.705-12.987 5.705-20.606 0-13.365-6.46-25.085-16.169-31.667-5.358-3.633-8.18-10.518-6.865-17.238.368-1.877.561-3.825.561-5.823 0-13.303-8.567-24.43-20.025-27.201-3.035-.734-5.073-3.807-4.785-7.176.13-1.501.175-2.94.035-4.112a24.057 24.057 0 00-.281-1.78c-1.29-6.589-5.09-10.402-10.381-13.561-2.96-1.767-4.412-5.482-3.57-9.04.414-1.752.646-3.592.693-5.489.348-14.2-6.683-20.05-11.566-22.684-2.386-1.286-4.124-3.656-4.822-6.452C128.53 5.07 121.933-.414 114.247.14c-7.517.544-13.687 6.98-14.496 15.13l-.018.192c-.25 2.795-2.453 4.845-5.031 4.71a18.185 18.185 0 00-2.564.049c-9.538.853-17.186 9.272-17.851 19.661a23.31 23.31 0 00.188 4.828c.52 3.595-.94 7.176-3.768 9.119-5.363 3.685-9.528 9.247-11.715 15.84-.846 2.55-2.806 4.489-5.207 5.215-10.726 3.244-18.598 13.947-18.598 26.653 0 3.421.571 6.696 1.616 9.72 1.615 4.675-.462 9.837-4.7 11.758-11.385 5.163-19.389 17.385-19.389 31.646 0 5.775 1.314 11.215 3.633 15.988 3.511 7.227 2.202 16.149-3.372 21.63C5.1 200.02.152 211.22.152 223.68v15.42h210.719v-15.42c0-6.244-3.624-12.173-7.91-17.508" mask="url(#b)"/></g><path fill="#D8A24C" d="M174.427 238.121l-.139 1.177s8.37-14.257 12.295-16.938l6.67-14.91s-.261-2.944.916-7.39c1.177-4.447 4.912-7.983 4.912-7.983-11.426 10.563-19.91 31.719-24.654 46.044"/><path fill="#184657" d="M46.074 221.898c-1.57 9.155-7.274 11.383-7.274 11.383l-1.046 6.017h66.52l1.23-8.37-59.43-9.03z"/><path fill="#F29D7E" d="M114.272 184.595c-1.548 6.419-2.969 11.537-2.73 26.542.239 15.005-5.748 21.122-5.748 21.122l-11.04-1.344 3.415-48.291 2.999-3.78 13.104 5.75z"/><path fill="#CF847E" d="M105.374 180.717l-5.498-.245-1.707 2.152-3.414 48.29 8.341 1.016 1.947-43.773h8.379c.272-1.19.559-2.353.85-3.562l-3.804-1.67h-5.192l.098-2.208z"/><path fill="#EBAAC0" d="M120.154 143.622c3.335 11.183-4.513 41.985-4.513 41.985l-15.891-.196 3.335-26.683 17.069-15.106z"/><path fill="#C98EBF" d="M99.75 185.41l7.153.089c-.345-4.506-.765-12.353.04-16.83 1.178-6.54 2.486-8.11 5.233-12.426l-6.448.147-2.643 2.339-3.335 26.681z"/><path fill="#EBAAC0" d="M80.654 113.343c-10.202-.393-26.174-1.045-33.876 5.95-7.847 7.13-19.619 30.28-19.619 30.28 1.423 5.739 12.85 9.548 18.639 10.921l4.12-6.474s-1.625 10.157-3.14 27.663c-1.766 20.404-.784 41.2-.784 41.2s15.717 8.828 34.53 8.828c12.752 0 22.169.982 22.169.982s-1.373-46.105 0-54.738c1.373-8.632 3.335-16.872 3.335-16.872s16.284-10.398 14.126-17.461c-2.158-7.063-26.682-22.17-26.682-22.17l-12.818-8.11z"/><path fill="#C98EBF" d="M57.569 145.78s-2.747 2.55-7.652 8.24c0 0-1.624 10.157-3.139 27.663-.48 5.549-.756 11.126-.906 16.307 1.393-2.212 3.17-5.557 5.026-10.421 4.12-10.79 6.67-41.79 6.67-41.79"/><path fill="#ED7673" d="M101.236 126.548a221.515 221.515 0 00-7.426-4.84l-13.215-8.36a407.249 407.249 0 00-4.427-.155l-.839 1.975-.056.244c-.07.304-1.669 7.52 1.873 12.97 1.857 2.858 4.695 4.678 8.434 5.41 1.133.221 2.252.333 3.324.333h.002c8.031 0 11.543-5.996 12.33-7.577"/><path fill="#F29D7E" d="M89.254 89.865L78.169 115.96s-2.848 12.426 7.848 14.518c9.119 1.783 12.294-5.755 12.294-5.755l6.996-29.15-16.053-5.707z"/><path fill="#C26F60" d="M88.054 92.689c1.528 6.267 5.394 10.693 10.992 10.693 1.692 0 3.23-.42 4.599-1.179l1.662-6.632-16.053-5.706-1.2 2.824z"/><path fill="#ED6D53" d="M110.078 89.895a5.423 5.423 0 10.51-10.835l-.51 10.835z"/><path fill="#BC422A" d="M110.198 87.332a2.858 2.858 0 10.269-5.71l-.269 5.71z"/><path fill="#F29D7E" d="M111.601 83.291c0 9.417-4.475 17.05-11.722 17.05-7.353 0-11.721-7.633-11.721-17.05 0-9.416 3.196-17.263 11.508-17.263 8.952 0 11.935 7.847 11.935 17.263"/><path fill="#ED6D53" d="M97.14 86.602a2.718 2.718 0 11-5.436 0 2.718 2.718 0 015.435 0m13.371-.486a2.717 2.717 0 11-5.435 0 2.717 2.717 0 015.435 0m-9.763-6.78l3.603 7.298a1.12 1.12 0 01-.892 1.61l-3.791.379 1.08-9.287z"/><path fill="#FFF" d="M104.974 91.073c0 1.512-1.753 2.738-3.916 2.738-2.163 0-3.916-1.226-3.916-2.738 0-1.513 1.753-.514 3.916-.514 2.163 0 3.916-.999 3.916.514"/><path fill="#0D232B" d="M95.75 81.298a.675.675 0 11-1.351 0 .675.675 0 011.35 0m12.265.002a.675.675 0 11-1.35 0 .675.675 0 011.35 0"/><path fill="#D6B964" d="M91.216 78.682c.264-.586.801-1.017 1.37-1.298a4.765 4.765 0 011.842-.459c.632-.031 1.27.05 1.872.266.3.11.592.249.855.443.065.05.13.096.192.148.059.059.117.115.171.176.115.11.198.264.27.397-.6-.193-1.132-.226-1.68-.26a17.193 17.193 0 00-3.23.164c-.54.086-1.07.204-1.662.423m12.262-.229c.319-.527.815-.92 1.361-1.197a4.623 4.623 0 011.77-.47 4.545 4.545 0 011.816.246c.572.209 1.144.557 1.462 1.094a9.44 9.44 0 00-1.649-.188 16.325 16.325 0 00-3.106.192c-.526.081-1.052.195-1.654.323"/><path fill="#ED6D53" d="M89.115 90.18a5.424 5.424 0 11-.51-10.836l.51 10.835z"/><path fill="#BC422A" d="M88.995 87.617a2.858 2.858 0 01-.269-5.71l.269 5.71z"/><path fill="#D6B964" d="M110.2 68.71c1.273-1.314 1.867-2.878 1.256-4.35-1.439-3.466-5.755-2.223-5.755-2.223s-1.765-4.186-5.493-3.597c-3.728.589-4.513 3.728-4.513 3.728s-4.708-1.243-8.109 4.447c-3.4 5.69-1.373 13.308-1.373 13.308s1.531.189 1.57 1.243c.065 1.798.588 3.4.588 3.4l1.079.327s.233-6.674.818-8.011c.915-2.093 3.924-7.194 3.924-7.194s3.269 2.028 8.37 2.028c1.685 0 3.382-.437 4.85-1.145 1.856 2.747 3.216 5.732 3.586 8.077.393 2.485.603 4.543.603 4.543l.77-3.89s.362-7.5-2.17-10.69"/><path fill="#F29D7E" d="M27.748 149.704c-5.167 10.07-8.567 21.58-8.829 32.567-.261 10.987 11.772 50.226 19.88 51.01 8.11.785 8.372-2.223 8.372-2.223s-2.093 4.185-.523 4.447c1.569.261 3.923-4.709 3.139-6.148 0 0-.655 4.055.523 3.27 1.177-.784 1.962-3.27.916-6.016-1.047-2.747-6.017-3.4-6.017-3.4 0-.001-11.51-32.046-10.856-39.501.56-6.379 8.396-20.035 10.648-23.845a1.603 1.603 0 00-.211-1.916c-1.331-1.41-4.19-4.11-7.756-5.564-4.97-2.027-9.286-2.681-9.286-2.681"/><path fill="#CF847E" d="M36.25 153.954c3.565 1.455 6.424 4.155 7.755 5.565.347.367.486.865.411 1.343.22-.379.42-.717.585-.997a1.602 1.602 0 00-.211-1.916c-1.331-1.41-4.19-4.11-7.756-5.564-4.97-2.027-9.286-2.681-9.286-2.681a83.054 83.054 0 00-.781 1.57c.076.012 4.357.671 9.283 2.68"/><path fill="#CAC6FE" d="M48.847 233.546a3.873 3.873 0 01-.014-.165c-.054.16-.112.323-.176.485.065-.104.128-.21.19-.32"/><path fill="#184657" d="M173.84 86.598a3.265 3.265 0 01-.999-3.21c.563-2.315.734-6.091-2.934-8.667-1.536-1.079-3.021-1.492-4.372-1.527.293-2.48 3.988-3.252 3.113-6.024-.901-2.853-4.693-1.34-4.47-3.352.224-2.011.447-4.916-2.904-5.438-4.607-.716-4.097 3.8-5.81 3.948-1.714.15-2.458-3.128-5.81-1.638-3.352 1.49-1.592 5.785-5.214 5.66-4.32-.149-5.96 4.991-1.565 6.704 4.15 1.618 4.58 1.178 5.118 3.005a3.262 3.262 0 01-1.9 1.04 6.918 6.918 0 00-3.653 1.812c-1.982 1.858-1.983 4.142-1.714 5.573a3.256 3.256 0 01-.549 2.486c-2.57 3.615-.63 7.906 1.74 10.46 0 0 12.687 7.477 21.842 7.477 9.156 0 11.38-5.36 12.425-11.285.631-3.57-.97-5.808-2.343-7.024m2.148 108.36c3.4 10.268 9.024 44.34 9.024 44.34h-73.375s.392-23.935 11.379-45.517c8.603-16.898 11.248-18.703 11.248-18.703l31.652-2.486s6.67 12.099 10.072 22.366"/><path fill="#E85F5B" d="M175.4 131.785c-8.75-4.167-14.193-6.541-14.193-6.541l-15.824-2.221c-9.221 4.838-21.385 4.838-25.702 15.629-4.315 10.79-14.91 47.086-2.55 50.813.46.138.914.267 1.366.385 2.326-5.239 6.034-10.45 8.448-13.565.01-.911.097-4.396.696-8.645l5.055 10.577 36.099-1.439c2.172-2.566 4.783-9.778 5.581-13.03l2.397 9.433c5.886-.515 11.106.778 16.284 3.924 0 0-9.417-41.396-17.657-45.32"/><path fill="#D0866B" d="M149.437 105.495l-4.054 17.527s-10.59 20.095 6.18 21.515c17.755 1.504 9.646-19.292 9.646-19.292l3.27-18.18-15.042-1.57z"/><path fill="#A65F51" d="M148.658 108.862c1.823 3.756 4.848 6.181 8.823 6.181 2.328 0 4.344-.858 5.984-2.34l1.014-5.638-15.041-1.57-.78 3.367z"/><path fill="#C85A44" d="M166.738 102.942a4.993 4.993 0 10.47-9.975l-.47 9.975z"/><path fill="#BC422A" d="M166.85 100.583a2.631 2.631 0 00.246-5.256l-.247 5.256z"/><path fill="#D0866B" d="M168.14 96.863c0 8.668-4.119 15.695-10.79 15.695-6.768 0-10.79-7.027-10.79-15.695s2.943-15.892 10.594-15.892c8.24 0 10.987 7.224 10.987 15.892"/><path fill="#C85A44" d="M154.015 100.182a2.501 2.501 0 11-5.003 0 2.501 2.501 0 015.003 0m13.603-.327a2.501 2.501 0 11-5.003 0 2.501 2.501 0 015.003 0m-9.091-4.496l2.183 4.42a.678.678 0 01-.54.974l-2.297.23.654-5.624z"/><path fill="#FFF" d="M161.797 103.35c0 .765-1.434 1.386-3.204 1.386-1.77 0-3.204-.62-3.204-1.386 0-.765 1.434-.26 3.204-.26 1.77 0 3.204-.505 3.204.26"/><path fill="#0D232B" d="M152.544 94.9a.621.621 0 11-1.243 0 .621.621 0 011.243 0m12.294.099a.621.621 0 11-1.242 0 .621.621 0 011.242 0"/><path fill="#045E80" d="M149.372 92.476c.285-.374.69-.632 1.112-.82.427-.183.884-.29 1.346-.324a4.04 4.04 0 011.383.127c.445.128.894.342 1.194.707a8.118 8.118 0 00-1.285-.097 15.35 15.35 0 00-1.234.045 17.958 17.958 0 00-2.516.363m12.098-.197c.285-.374.69-.632 1.112-.82.427-.183.884-.29 1.346-.325.462-.034.932.003 1.383.128.446.128.895.342 1.195.707a8.115 8.115 0 00-1.286-.097c-.414-.003-.824.015-1.233.044a18.312 18.312 0 00-2.517.363"/><path fill="#C85A44" d="M147.442 103.203a4.992 4.992 0 11-.47-9.974l.47 9.974z"/><path fill="#BC422A" d="M147.33 100.844a2.631 2.631 0 11-.247-5.256l.248 5.256z"/><path fill="#184657" d="M157.416 79.271c-12.556.196-12.099 13.995-12.099 13.995 1.7 1.243 2.943 1.308 3.532.72.588-.59 1.373-6.802 4.12-8.96 2.746-2.158 6.801-2.812 6.801-2.812s1.831 5.362 5.297 8.501c3.467 3.14 5.363 3.14 5.363 3.14s-.458-14.78-13.014-14.584"/><path fill="#D0866B" d="M193.057 177.105c1.373 7.52-4.12 11.183-10.92 11.183-6.803 0-40.809-3.27-40.809-3.27l19.88-11.248 15.958-.589s4.447-.72 9.024.72c4.578 1.438 6.867 3.204 6.867 3.204"/><path fill="#A75D4F" d="M141.328 185.018s4.4.423 10.35.965c3.079-4.261 10.784-8.604 15.155-9.728 4.578-1.177 10.333-3.074 10.333-3.074l-15.957.589-19.881 11.248z"/><path fill="#D0866B" d="M176.773 173.206s-9.834-.613-23.763 8.411c-13.412 8.692-22.785 11.348-34.513 8.232 2.427-7.447 5.043-10.455 8.447-13.564-.003.153-.003.232-.003.232s13.93-1.57 29.036-4.905c15.107-3.336 20.796 1.594 20.796 1.594"/><g transform="translate(253.8 204.498)"><mask id="d" fill="#fff"><use xlink:href="#c"/></mask><path fill="#184657" d="M7.993 2.448c6.628 1.186 21.046 2.206 30.451 1.073C47.85 2.388 65.386.008 65.386.008L71.274 35.1H.127L7.993 2.448z" mask="url(#d)"/></g><path fill="#C57F65" d="M310.791 221.802c-2.152 5.013-2.298 5.868-2.298 5.868l12.477 6.016 2.044-9.223-12.223-2.661zm-22.242-94.012c-1.258 1.712-2.73 3.448-4.586 4.55-2.834.227-5.628.57-8.283.73-2.528-.754-4.686-2.199-6.847-4.1-3.889-3.421-6.345-6.46-9.325-10.853 9.172-4.09 10.605-3.662 11.254-7.651.718-4.408-2.214-27.308-2.214-27.308l18.875-1.226s2.511 22.63 3.394 26.367c.534 2.26 3.233 3.644 7.05 5.07-2.614 5.093-5.938 9.816-9.318 14.42"/><path fill="#B36758" d="M272.444 98.278c-.8.07-1.559.071-2.28.012a873.374 873.374 0 00-1.616-15.132l13.5-.936c.137 8.53-3.233 15.575-9.604 16.056"/><path fill="#FAF8DC" d="M317.799 119.194c-10.202-6.61-24.636-7.84-24.636-7.84-1.663 4.939-10.155 15.812-13.526 19.16-3.306-3.216-9.635-13.023-11.235-17.499 0 0-16.524 6.796-19.24 10.524-5.315 7.294-7.674 41.245-8.618 61.256a17.785 17.785 0 0013.758 18.168l6.704-2.35c-.26 6.908 1.784 8.366 1.784 8.366s10.997 3.176 27.967 1.683c16.97-1.494 21.73-2.697 21.73-2.697l-3.52 14.818 14.771 2.89s13.853-34.37 14.148-49.998c.295-15.63-9.886-49.87-20.087-56.48"/><path fill="#D5D2DB" d="M253.717 140.242c-2.212-3.49-4.641-6.83-7.111-10.142-2.431 8.157-4.6 23.707-6.062 54.695-.858 18.183 19.54 19.19 20.594 19.75.092.743-2.677-24.494-4.782-34.315-2.578-12.022-2.994-22.076-2.639-29.988m56.808 2.701l9.294 33.675-7.332 31.347-10.647 1.437s6.443-17.992 7.475-29.459c1.031-11.467 1.21-37 1.21-37"/><path fill="#C57F65" d="M240.969 190.953c1.767 11.627 17.695 45.589 17.695 45.589l8.971-8.657-7.67-31.74c-3.045-3.88-14.734-7.568-18.996-5.192"/><path fill="#C85A44" d="M290.723 76.763a6.492 6.492 0 00-7.908-5.318c.326.936.607 1.927.848 2.96.04-.007.078-.018.119-.024a3.421 3.421 0 111.052 6.761 3.303 3.303 0 01-.28.03 20.978 20.978 0 01-.234 3.083 6.492 6.492 0 006.403-7.491"/><path fill="#BC422A" d="M284.554 81.171a3.31 3.31 0 00.28-.029 3.421 3.421 0 00-1.052-6.761c-.04.006-.079.017-.119.024.245 1.045.45 2.134.624 3.254a22.38 22.38 0 01.267 3.512"/><path fill="#C57F65" d="M260.523 80.204c1.407 9.042 5.916 15.948 14.58 14.499 6.645-1.034 10.891-9.202 9.484-18.244-1.407-9.041-4.816-16.018-14.58-14.499-10.75 1.673-10.89 9.202-9.484 18.244"/><path fill="#000" d="M274.238 74.332a.916.916 0 101.81-.281.916.916 0 00-1.81.281"/><path fill="#C85A44" d="M273.72 80.625a2.845 2.845 0 105.621-.875 2.845 2.845 0 00-5.621.875"/><path fill="#FFF" d="M264.796 83.645c.188 1.21 2.03 1.93 4.114 1.605 2.084-.324 3.62-1.569 3.432-2.78-.189-1.21-1.764-.039-3.848.286-2.083.324-3.886-.322-3.698.889"/><path fill="#1A4E60" d="M288.884 70.512c-.858.561-1.638.98-2.36 1.28.722-.3 1.502-.719 2.36-1.28m-12.753-2.295c.662.991 1.374 1.764 2.18 2.371-.806-.607-1.518-1.38-2.18-2.37"/><path fill="#2D3D45" d="M302.83 58c-2.973-3.33-7.83-4.261-11.775-1.639-3.944 2.623-6.902 1.057-10.52-1.393-3.617-2.45-9.992-3.594-16-1.386-7.81 2.869-5.63 11.833-3.147 13.356 4.098.372 12.858-2.405 12.858-2.405.61 1.483 1.223 2.693 1.885 3.684-.662-.991-1.275-2.2-1.885-3.684-.189-3.81 4.302-4.811 6.831-3.488 2.53 1.324 5.545 3.178 8.76 1.768s7.063-.695 8.949 1.032c.933.855 1.77 2.368 2.378 3.678 3.195-1.54 4.525-6.32 1.667-9.522"/><path fill="#1A4E60" d="M289.256 70.263"/><path fill="#CAC6FE" d="M298.913 68.022c-.687-.008-1.34-.142-1.976-.292.637.15 1.29.284 1.976.292m2.251-.499zm-4.227.207c-.363-.086-.722-.176-1.08-.251.358.075.717.165 1.08.251m-13.977 4.664"/><path fill="#0D232A" d="M298.786 63.845c-1.885-1.727-5.734-2.441-8.949-1.032-3.215 1.41-6.23-.444-8.76-1.768-2.53-1.323-7.02-.321-6.831 3.488.61 1.483 1.223 2.693 1.885 3.684.662.991 1.373 1.764 2.179 2.371a8.31 8.31 0 001.196.746c.663.342 1.385.613 2.19.827.043.012.086.02.129.03.352 1.28.94 3.577 1.002 4.643l1.76-.375-.7-4.045c.289-.013.583-.04.887-.094a8.414 8.414 0 001.75-.527c.722-.3 1.502-.72 2.36-1.28.122-.08.246-.164.372-.25a31.803 31.803 0 002.457-1.883 4.768 4.768 0 011.269-.783 3.882 3.882 0 011.536-.287c.449.005.893.075 1.34.169.357.075.716.166 1.08.251.636.15 1.288.284 1.975.293a5.084 5.084 0 001.532-.216 5.02 5.02 0 00.719-.283c-.608-1.311-1.445-2.824-2.378-3.679"/><path fill="#0D232A" d="M278.003 70.46a9.895 9.895 0 00-.967-.327c-.334-.063-.67-.152-1.014-.176a7.309 7.309 0 00-2.083.082c-.342.083-.686.162-1.016.291l-.247.095-.24.114-.239.115c-.077.042-.152.09-.228.136-.608.368-1.148.822-1.535 1.46a.275.275 0 00.39.368l.037-.024a8.646 8.646 0 011.59-.863 9.65 9.65 0 011.72-.518c.298-.052.593-.11.898-.133.301-.05.608-.046.917-.073.155-.018.31-.005.466-.01l.471-.008c.316.004.634.023.963.007h.026a.277.277 0 00.09-.535"/><path fill="#C85A44" d="M267.422 74.97l-1.61 4.621a.78.78 0 00.833 1.032l2.619-.325-1.842-5.328z"/><path fill="#0D232A" d="M265.847 72.585a7.796 7.796 0 00-.74-.378 8.793 8.793 0 00-.79-.268 7.547 7.547 0 00-.835-.162c-.288-.017-.573-.054-.868-.026a3.808 3.808 0 00-1.726.464c-.132.08-.264.161-.387.253-.117.104-.239.197-.341.315-.21.236-.38.476-.482.814a.27.27 0 00.429.29l.066-.055a3.34 3.34 0 01.545-.383c.191-.116.404-.195.61-.273a4.997 4.997 0 011.35-.23c.233-.028.478 0 .718-.012l.739.04c.248.033.503.042.758.069.256.029.514.059.785.063h.02a.28.28 0 00.15-.521"/><path fill="#000" d="M261.82 76.264a.807.807 0 101.595-.248.807.807 0 00-1.594.248"/><path fill="#C85A44" d="M263.577 82.304a2.845 2.845 0 01-1.8 3.096c-.55-1.61-.968-3.358-1.254-5.196l-.043-.289a2.842 2.842 0 013.097 2.39"/><path fill="#184657" d="M239.358 125.916c-4.905-4.905-25.5-6.789-25.5-6.789l-7.417 1.198s-14.839 4.613-19.975 16.951c-5.135 12.339-12.296 33.358-11.49 41.643.808 8.285 11.607 27.043 11.607 27.043 1.635-3.924 4.774-11.248 6.67-14.91l-6.198-14.34s7.85-26.161 9.228-30.616c0 0-3.443 6.719.169 13.754 3.613 7.036 2.63 15.83 2.63 15.83s3.609 2.714 17.952 2.571c14.343-.142 16.782-1.996 16.782-1.996l3.36-26.755 9.804 22.238-11.742 19.51c1.962 4.904 2.813 9.81 3.336 12.163 0 0 16.678-10.288 19.642-28.223 2.964-17.935-11.93-42.345-18.858-49.272"/><path fill="#F29D7E" d="M220.116 101.841l2.294 17.843s8.542 21.047-8.286 20.795c-17.817-.266-5.96-20.154-5.96-20.154l-2.355-19.031 14.307.547z"/><path fill="#E48661" d="M220.556 105.269c-2.186 3.556-4.797 5.418-8.763 5.148-2.157-.148-3.678-.638-5.15-2.06l-.449-5.711 13.921-.805.441 3.428z"/><path fill="#ED6D53" d="M202.063 97.103a4.992 4.992 0 111.234-9.908l-1.234 9.908z"/><path fill="#BC422A" d="M202.355 94.76a2.631 2.631 0 01.65-5.222l-.65 5.222z"/><path fill="#ED6D53" d="M221.033 100.644a4.992 4.992 0 102.16-9.749l-2.16 9.749z"/><path fill="#BC422A" d="M221.544 98.338a2.631 2.631 0 001.138-5.137l-1.138 5.137z"/><path fill="#FCC14A" d="M233.816 176.255l-34.738-.505c-16.28 16.136-26.694 55.158-28.788 63.548h88.226c-4.209-26.177-17.411-55.81-24.7-63.043"/><path fill="#F29D7E" d="M201.715 90.874c-1.475 8.542 1.39 16.167 7.962 17.302 6.67 1.152 11.83-5.088 13.304-13.63 1.475-8.542-.196-16.16-7.736-17.462-8.12-1.403-12.055 5.248-13.53 13.79"/><path fill="#ED6D53" d="M214.367 97.63a2.501 2.501 0 104.93.85 2.501 2.501 0 00-4.93-.85m-12.44-2.466a2.501 2.501 0 104.93.851 2.501 2.501 0 00-4.93-.85m9.574-2.498L208.6 96.65a.678.678 0 00.366 1.052l2.224.617.312-5.653z"/><path fill="#FFF" d="M206.634 99.578c-.17.98 1.107 2.018 2.85 2.32 1.745.3 3.296-.25 3.465-1.23.17-.98-1.356-.576-3.1-.878-1.744-.3-3.046-1.192-3.215-.212"/><path fill="#0D232B" d="M217.237 93.008a.677.677 0 101.333.232.677.677 0 00-1.333-.232m-12.162-1.788a.677.677 0 101.334.23.677.677 0 00-1.334-.23"/><path fill="#ED6D53" d="M220.622 91.366c-.433-.17-.826-.317-1.227-.444a17.81 17.81 0 00-1.192-.34c-.398-.1-.799-.187-1.207-.255a8.17 8.17 0 00-1.283-.123c.357-.308.836-.443 1.297-.494a4.052 4.052 0 011.384.11c.45.113.882.296 1.271.55.385.256.74.58.957.996m-11.835-1.987a18.61 18.61 0 00-1.227-.444 17.634 17.634 0 00-2.4-.595 8.099 8.099 0 00-1.282-.124c.357-.308.836-.443 1.297-.493a4.052 4.052 0 011.384.11c.45.113.882.296 1.271.55.385.256.74.579.957.996"/><path fill="#E85F5B" d="M232.844 103.744c-.709-4.614 3.349-11.45.727-16.478-1.759-3.37-3.635-2.761-5.788-7.553-3.04-6.769-6.317-7.838-9.613-7.553-1.389.12-2.597.622-3.568 1.208-4.873-2.18-9.941.526-12.201 4.168-2.964 4.776-.68 10.77-.68 10.77s1.007-1.663 2.535-3.678c.736-.641 1.591-1.214 2.509-1.496 1.501-.462 4.22-1.561 6.773-3.013 3.867 9.286 7.159 6.187 9.82 11.809 3.016 6.37-4.091 8.474-3.584 11.77.506 3.295.241 10.96.867 14.522.626 3.563 2.85 6.543 1.373 10.274-1.477 3.73-.988 7.419 1.592 11.2 2.58 3.782.26 5.903.97 10.517.709 4.615 5.988 3.673 6.442-.627.455-4.3 1.857-3.452 4.67-7.777 2.812-4.326.886-8.078-.103-12.312s2.053-6.356 2.488-13.145c.435-6.788-4.519-7.992-5.229-12.606"/></g></svg>